<svg xmlns="http://www.w3.org/2000/svg" viewBox="0 0 48 48"><defs><style>.cls-1{fill:#1e0f00;}</style></defs><title>Asset 441</title><g id="Layer_2" data-name="Layer 2"><g id="_1" data-name="1"><rect class="cls-1" x="1" y="6" width="4" height="2"/><rect class="cls-1" x="1" y="14" width="4" height="2"/><rect class="cls-1" x="1" y="22" width="4" height="2"/><rect class="cls-1" x="1" y="30" width="4" height="2"/><rect class="cls-1" x="1" y="38" width="4" height="2"/><path class="cls-1" d="M33,48H1a1,1,0,0,1-1-1V0H2V46H33Z"/><path class="cls-1" d="M43,34H41V24H35V34H33V23a1,1,0,0,1,1-1h8a1,1,0,0,1,1,1Z"/><path class="cls-1" d="M35,34H33V16H26V14h8a1,1,0,0,1,1,1Z"/><path class="cls-1" d="M27,37H25V9H18V7h8a1,1,0,0,1,1,1Z"/><rect class="cls-1" x="25" y="39" width="2" height="5"/><rect class="cls-1" x="9" y="30" width="2" height="14"/><path class="cls-1" d="M11,28H9V1a1,1,0,0,1,1-1h8a1,1,0,0,1,1,1V18H17V2H11Z"/><rect class="cls-1" x="17" y="20" width="2" height="24"/><path class="cls-1" d="M38,48a1,1,0,0,1-.71-.29l-9-9a1,1,0,0,1-.21-1.09A1,1,0,0,1,29,37h4V32h2v6a1,1,0,0,1-1,1H31.41L38,45.59,44.59,39H42a1,1,0,0,1-1-1V32h2v5h4a1,1,0,0,1,.92.62,1,1,0,0,1-.21,1.09l-9,9A1,1,0,0,1,38,48Z"/></g></g></svg>