<svg xmlns="http://www.w3.org/2000/svg" viewBox="0 0 48 48"><defs><style>.cls-1{fill:#1e0f00;}</style></defs><title>Asset 231</title><g id="Layer_2" data-name="Layer 2"><g id="_1" data-name="1"><path class="cls-1" d="M10,12C7.24,12,5,9.31,5,6s2.24-6,5-6,5,2.69,5,6S12.76,12,10,12ZM10,2C8.35,2,7,3.79,7,6s1.35,4,3,4,3-1.79,3-4S11.65,2,10,2Z"/><rect class="cls-1" x="2" y="46" width="16" height="2"/><rect class="cls-1" x="4" y="16" width="2" height="31"/><rect class="cls-1" x="9" y="31" width="2" height="16"/><path class="cls-1" d="M16,47H14V17a1,1,0,0,1,1.63-.77L25,23.89V22.35l-6-7.5a6,6,0,0,0-3.95-2.21L10,12l-5.32.59a3,3,0,0,0-2.67,3V27a1,1,0,0,0,1,1H5v2H3a3,3,0,0,1-3-3V15.58a5,5,0,0,1,4.45-5L9.89,10h.23l5.18.65a7.92,7.92,0,0,1,5.26,2.94l6.22,7.78A1,1,0,0,1,27,22v4a1,1,0,0,1-1.63.77L16,19.11Z"/><rect class="cls-1" x="5" y="26" width="10" height="2"/><rect class="cls-1" x="9" y="14" width="2" height="2"/><rect class="cls-1" x="9" y="18" width="2" height="2"/><rect class="cls-1" x="9" y="22" width="2" height="2"/><path class="cls-1" d="M46,30H44V6H17V4H45a1,1,0,0,1,1,1Z"/><rect class="cls-1" x="45" y="4" width="3" height="2"/><rect class="cls-1" x="32" y="9" width="9" height="2"/><rect class="cls-1" x="21" y="9" width="9" height="2"/><rect class="cls-1" x="25" y="14" width="11" height="2"/><rect class="cls-1" x="29" y="19" width="12" height="2"/><rect class="cls-1" x="29" y="24" width="9" height="2"/><rect class="cls-1" x="18" y="29" width="30" height="2"/><rect class="cls-1" x="28" y="30" width="2" height="18"/><rect class="cls-1" x="28" width="2" height="5"/></g></g></svg>