<svg xmlns="http://www.w3.org/2000/svg" viewBox="0 0 48 48"><defs><style>.cls-1{fill:#1e0f00;}</style></defs><title>Asset 131</title><g id="Layer_2" data-name="Layer 2"><g id="_1" data-name="1"><rect class="cls-1" x="30" y="7" width="6" height="2"/><rect class="cls-1" x="23" y="7" width="5" height="2"/><rect class="cls-1" x="23" y="11" width="10" height="2"/><rect class="cls-1" x="29" y="29" width="7" height="2"/><rect class="cls-1" x="23" y="29" width="4" height="2"/><rect class="cls-1" x="31" y="33" width="5" height="2"/><rect class="cls-1" x="23" y="33" width="6" height="2"/><rect class="cls-1" x="30" y="18" width="6" height="2"/><rect class="cls-1" x="23" y="18" width="5" height="2"/><rect class="cls-1" x="23" y="22" width="8" height="2"/><polygon class="cls-1" points="15 24.41 11.29 20.71 12.71 19.29 15 21.59 20.29 16.29 21.71 17.71 15 24.41"/><path class="cls-1" d="M33,48H15a1,1,0,0,1-1-1V41a1,1,0,0,1,1-1H33a1,1,0,0,1,1,1v6A1,1,0,0,1,33,48ZM16,46H32V42H16Z"/><path class="cls-1" d="M18,14H14a2,2,0,0,1-2-2V8a2,2,0,0,1,2-2h4a2,2,0,0,1,2,2v4A2,2,0,0,1,18,14ZM14,8v4h4V8Z"/><path class="cls-1" d="M18,36H14a2,2,0,0,1-2-2V30a2,2,0,0,1,2-2h4a2,2,0,0,1,2,2v4A2,2,0,0,1,18,36Zm-4-6v4h4V30Z"/><path class="cls-1" d="M45,42H3a3,3,0,0,1-3-3V11A3,3,0,0,1,3,8H5v2H3a1,1,0,0,0-1,1V39a1,1,0,0,0,1,1H45a1,1,0,0,0,1-1V11a1,1,0,0,0-1-1H43V8h2a3,3,0,0,1,3,3V39A3,3,0,0,1,45,42Z"/><path class="cls-1" d="M41,38H39V2H9V38H7V1A1,1,0,0,1,8,0H40a1,1,0,0,1,1,1Z"/><rect class="cls-1" x="8" y="46" width="32" height="2"/></g></g></svg>