<svg xmlns="http://www.w3.org/2000/svg" viewBox="0 0 48 46"><defs><style>.cls-1{fill:#1e0f00;}</style></defs><title>Asset 511</title><g id="Layer_2" data-name="Layer 2"><g id="_1" data-name="1"><path class="cls-1" d="M5,28a5,5,0,1,1,5-5A5,5,0,0,1,5,28Zm0-8a3,3,0,1,0,3,3A3,3,0,0,0,5,20Z"/><path class="cls-1" d="M43,28a5,5,0,1,1,5-5A5,5,0,0,1,43,28Zm0-8a3,3,0,1,0,3,3A3,3,0,0,0,43,20Z"/><path class="cls-1" d="M43,46a5,5,0,1,1,5-5A5,5,0,0,1,43,46Zm0-8a3,3,0,1,0,3,3A3,3,0,0,0,43,38Z"/><path class="cls-1" d="M43,10a5,5,0,1,1,5-5A5,5,0,0,1,43,10Zm0-8a3,3,0,1,0,3,3A3,3,0,0,0,43,2Z"/><path class="cls-1" d="M24,37a5,5,0,1,1,5-5A5,5,0,0,1,24,37Zm0-8a3,3,0,1,0,3,3A3,3,0,0,0,24,29Z"/><path class="cls-1" d="M24,19a5,5,0,1,1,5-5A5,5,0,0,1,24,19Zm0-8a3,3,0,1,0,3,3A3,3,0,0,0,24,11Z"/><path class="cls-1" d="M20,33H15a1,1,0,0,1-1-1V26h2v5h4Z"/><path class="cls-1" d="M15,24H9V22h5V14a1,1,0,0,1,1-1h5v2H16v8A1,1,0,0,1,15,24Z"/><rect class="cls-1" x="28" y="13" width="6" height="2"/><path class="cls-1" d="M39,24H34a1,1,0,0,1-1-1V5a1,1,0,0,1,1-1h5V6H35V22h4Z"/><rect class="cls-1" x="28" y="31" width="6" height="2"/><path class="cls-1" d="M39,42H34a1,1,0,0,1-1-1V26h2V40h4Z"/></g></g></svg>