<svg xmlns="http://www.w3.org/2000/svg" viewBox="0 0 48 47.34"><defs><style>.cls-1{fill:#1e0f00;}</style></defs><title>Asset 551</title><g id="Layer_2" data-name="Layer 2"><g id="_1" data-name="1"><path class="cls-1" d="M47,34H1a1,1,0,0,1-1-1V1A1,1,0,0,1,1,0H47a1,1,0,0,1,1,1V33A1,1,0,0,1,47,34ZM2,32H46V2H2Z"/><path class="cls-1" d="M37.06,47.34,32.29,34H15.71L10.94,47.34l-1.88-.68,5-14A1,1,0,0,1,15,32H33a1,1,0,0,1,.94.66l5,14Z"/><rect class="cls-1" x="14" y="5" width="7" height="2"/><rect class="cls-1" x="5" y="5" width="7" height="2"/><rect class="cls-1" x="5" y="10" width="13" height="2"/><rect class="cls-1" x="5" y="15" width="12" height="2"/><rect class="cls-1" x="11" y="20" width="6" height="2"/><rect class="cls-1" x="5" y="20" width="4" height="2"/><rect class="cls-1" x="5" y="25" width="8" height="2"/><rect class="cls-1" x="12.5" y="40" width="23" height="2"/><path class="cls-1" d="M31,29A12,12,0,1,1,43,17,12,12,0,0,1,31,29ZM31,7A10,10,0,1,0,41,17,10,10,0,0,0,31,7Z"/><path class="cls-1" d="M31,18a.84.84,0,0,1-.38-.08A1,1,0,0,1,30,17V6h2v8.59l6.07-6.07,1.41,1.41-7.77,7.78A1,1,0,0,1,31,18Z"/><rect class="cls-1" x="33.89" y="15.39" width="2" height="11" transform="translate(-4.55 30.79) rotate(-45)"/></g></g></svg>