<svg xmlns="http://www.w3.org/2000/svg" viewBox="0 0 48 48"><defs><style>.cls-1{fill:#1e0f00;}</style></defs><title>Asset 81</title><g id="Layer_2" data-name="Layer 2"><g id="_1" data-name="1"><path class="cls-1" d="M47,48H1a1,1,0,0,1-1-1V9A1,1,0,0,1,1,8H47a1,1,0,0,1,1,1V47A1,1,0,0,1,47,48ZM2,46H46V10H2Z"/><path class="cls-1" d="M47,10H1A1,1,0,0,1,0,9V1A1,1,0,0,1,1,0H47a1,1,0,0,1,1,1V9A1,1,0,0,1,47,10ZM2,8H46V2H2Z"/><rect class="cls-1" x="7" y="20" width="4" height="2"/><rect class="cls-1" x="4" y="4" width="2" height="2"/><rect class="cls-1" x="8" y="4" width="2" height="2"/><rect class="cls-1" x="12" y="4" width="2" height="2"/><rect class="cls-1" x="7" y="27" width="4" height="2"/><path class="cls-1" d="M42,42H7a1,1,0,0,1-1-1V14a1,1,0,0,1,1-1h4v2H8V40H42Z"/><rect class="cls-1" x="30.49" y="18.74" width="13.64" height="2" transform="translate(0.53 40.44) rotate(-57.26)"/><rect class="cls-1" x="25.5" y="20.98" width="2" height="7.04" transform="translate(-8.4 33.7) rotate(-57.53)"/><rect class="cls-1" x="7.17" y="28.18" width="14.8" height="2" transform="translate(-17.37 22.6) rotate(-51.82)"/><rect class="cls-1" x="31" y="31" width="2" height="7"/><rect class="cls-1" x="20" y="24" width="2" height="14"/><path class="cls-1" d="M21,25a4,4,0,1,1,4-4A4,4,0,0,1,21,25Zm0-6a2,2,0,1,0,2,2A2,2,0,0,0,21,19Z"/><path class="cls-1" d="M32,32a4,4,0,1,1,4-4A4,4,0,0,1,32,32Zm0-6a2,2,0,1,0,2,2A2,2,0,0,0,32,26Z"/></g></g></svg>