<svg xmlns="http://www.w3.org/2000/svg" viewBox="0 0 48 48"><defs><style>.cls-1{fill:#1e0f00;}</style></defs><title>Asset 371</title><g id="Layer_2" data-name="Layer 2"><g id="_1" data-name="1"><path class="cls-1" d="M39,48H9a9,9,0,0,1-9-9V8H2V39a7,7,0,0,0,7,7H39a7,7,0,0,0,7-7V8h2V39A9,9,0,0,1,39,48Z"/><path class="cls-1" d="M39,43a4,4,0,1,1,4-4A4,4,0,0,1,39,43Zm0-6a2,2,0,1,0,2,2A2,2,0,0,0,39,37Z"/><path class="cls-1" d="M29,43a4,4,0,1,1,4-4A4,4,0,0,1,29,43Zm0-6a2,2,0,1,0,2,2A2,2,0,0,0,29,37Z"/><path class="cls-1" d="M19,43a4,4,0,1,1,4-4A4,4,0,0,1,19,43Zm0-6a2,2,0,1,0,2,2A2,2,0,0,0,19,37Z"/><path class="cls-1" d="M9,43a4,4,0,1,1,4-4A4,4,0,0,1,9,43Zm0-6a2,2,0,1,0,2,2A2,2,0,0,0,9,37Z"/><path class="cls-1" d="M39,33a4,4,0,1,1,4-4A4,4,0,0,1,39,33Zm0-6a2,2,0,1,0,2,2A2,2,0,0,0,39,27Z"/><path class="cls-1" d="M29,33a4,4,0,1,1,4-4A4,4,0,0,1,29,33Zm0-6a2,2,0,1,0,2,2A2,2,0,0,0,29,27Z"/><path class="cls-1" d="M19,33a4,4,0,1,1,4-4A4,4,0,0,1,19,33Zm0-6a2,2,0,1,0,2,2A2,2,0,0,0,19,27Z"/><path class="cls-1" d="M9,33a4,4,0,1,1,4-4A4,4,0,0,1,9,33Zm0-6a2,2,0,1,0,2,2A2,2,0,0,0,9,27Z"/><path class="cls-1" d="M15,22a1,1,0,0,1-.71-.29l-8-8a1,1,0,0,1-.21-1.09A1,1,0,0,1,7,12h4V0h2V13a1,1,0,0,1-1,1H9.41L15,19.59,20.59,14H18a1,1,0,0,1-1-1V0h2V12h4a1,1,0,0,1,.92.62,1,1,0,0,1-.21,1.09l-8,8A1,1,0,0,1,15,22Z"/><path class="cls-1" d="M37,22H35V9a1,1,0,0,1,1-1h2.59L33,2.41,27.41,8H30a1,1,0,0,1,1,1V22H29V10H25a1,1,0,0,1-.92-.62,1,1,0,0,1,.21-1.09l8-8a1,1,0,0,1,1.42,0l8,8a1,1,0,0,1,.21,1.09A1,1,0,0,1,41,10H37Z"/></g></g></svg>