<svg xmlns="http://www.w3.org/2000/svg" viewBox="0 0 48 48"><defs><style>.cls-1{fill:#1e0f00;}</style></defs><title>Asset 331</title><g id="Layer_2" data-name="Layer 2"><g id="_1" data-name="1"><path class="cls-1" d="M24,45A21,21,0,1,1,45,24,21,21,0,0,1,24,45ZM24,5A19,19,0,1,0,43,24,19,19,0,0,0,24,5Z"/><path class="cls-1" d="M24,38A14,14,0,1,1,38,24,14,14,0,0,1,24,38Zm0-26A12,12,0,1,0,36,24,12,12,0,0,0,24,12Z"/><rect class="cls-1" x="23" y="37" width="2" height="11"/><rect class="cls-1" x="23" width="2" height="11"/><rect class="cls-1" y="23" width="11" height="2"/><rect class="cls-1" x="37" y="23" width="11" height="2"/><path class="cls-1" d="M24,24c-2.21,0-4-2.24-4-5a3.71,3.71,0,0,1,4-4,3.71,3.71,0,0,1,4,4C28,21.76,26.21,24,24,24Zm0-7c-1.79,0-2,1.14-2,2,0,1.6.93,3,2,3s2-1.4,2-3C26,18.14,25.79,17,24,17Z"/><path class="cls-1" d="M31,32H29V25.69a1,1,0,0,0-.83-1L24,24l-4.17.7a1,1,0,0,0-.83,1V32H17V25.69a3,3,0,0,1,2.51-3L23.84,22a1.71,1.71,0,0,1,.32,0l4.33.73a3,3,0,0,1,2.51,3Z"/><rect class="cls-1" x="23" y="30" width="2" height="2"/><rect class="cls-1" x="23" y="26" width="2" height="2"/></g></g></svg>