<svg xmlns="http://www.w3.org/2000/svg" viewBox="0 0 48 48"><defs><style>.cls-1{fill:#1e0f00;}</style></defs><title>Asset 531</title><g id="Layer_2" data-name="Layer 2"><g id="_1" data-name="1"><path class="cls-1" d="M46,31H2a2,2,0,0,1-2-2V19a2,2,0,0,1,2-2H46a2,2,0,0,1,2,2V29A2,2,0,0,1,46,31ZM2,19V29H46V19Z"/><path class="cls-1" d="M46,14H2a2,2,0,0,1-2-2V2A2,2,0,0,1,2,0H46a2,2,0,0,1,2,2V12A2,2,0,0,1,46,14ZM2,2V12H46V2Z"/><path class="cls-1" d="M46,48H2a2,2,0,0,1-2-2V36a2,2,0,0,1,2-2H46a2,2,0,0,1,2,2V46A2,2,0,0,1,46,48ZM2,36V46H46V36Z"/><path class="cls-1" d="M42,36H6a1,1,0,0,1-1-1V30a1,1,0,0,1,1-1H42a1,1,0,0,1,1,1v5A1,1,0,0,1,42,36ZM7,34H41V31H7Z"/><path class="cls-1" d="M42,19H6a1,1,0,0,1-1-1V13a1,1,0,0,1,1-1H42a1,1,0,0,1,1,1v5A1,1,0,0,1,42,19ZM7,17H41V14H7Z"/><rect class="cls-1" x="5" y="5" width="2" height="4"/><rect class="cls-1" x="10" y="5" width="2" height="4"/><rect class="cls-1" x="15" y="5" width="2" height="4"/><rect class="cls-1" x="5" y="22" width="2" height="4"/><rect class="cls-1" x="10" y="22" width="2" height="4"/><rect class="cls-1" x="15" y="22" width="2" height="4"/><rect class="cls-1" x="5" y="39" width="2" height="4"/><rect class="cls-1" x="10" y="39" width="2" height="4"/><rect class="cls-1" x="15" y="39" width="2" height="4"/><rect class="cls-1" x="41" y="6" width="2" height="2"/><rect class="cls-1" x="41" y="23" width="2" height="2"/><rect class="cls-1" x="41" y="40" width="2" height="2"/><rect class="cls-1" x="20" y="6" width="19" height="2"/><rect class="cls-1" x="20" y="23" width="19" height="2"/><rect class="cls-1" x="20" y="40" width="19" height="2"/></g></g></svg>