<svg xmlns="http://www.w3.org/2000/svg" viewBox="0 0 48 48"><defs><style>.cls-1{fill:#1e0f00;}</style></defs><title>Asset 401</title><g id="Layer_2" data-name="Layer 2"><g id="_1" data-name="1"><path class="cls-1" d="M38,48H3a3,3,0,0,1-3-3V9A1,1,0,0,1,1,8H40a1,1,0,0,1,1,1v7H39V10H2V45a1,1,0,0,0,1,1H38a1,1,0,0,0,1-1V44h2v1A3,3,0,0,1,38,48Z"/><path class="cls-1" d="M12,32H6a1,1,0,0,1-1-1V25a1,1,0,0,1,1-1h6a1,1,0,0,1,1,1v6A1,1,0,0,1,12,32ZM7,30h4V26H7Z"/><path class="cls-1" d="M12,43H6a1,1,0,0,1-1-1V36a1,1,0,0,1,1-1h6a1,1,0,0,1,1,1v6A1,1,0,0,1,12,43ZM7,41h4V37H7Z"/><path class="cls-1" d="M21,32H17a1,1,0,0,1-1-1V25a1,1,0,0,1,1-1h4v2H18v4h3Z"/><path class="cls-1" d="M23,43H17a1,1,0,0,1-1-1V36a1,1,0,0,1,1-1h4v2H18v4h4V39h2v3A1,1,0,0,1,23,43Z"/><path class="cls-1" d="M23,21H17a1,1,0,0,1-1-1V14a1,1,0,0,1,1-1h6a1,1,0,0,1,1,1v6A1,1,0,0,1,23,21Zm-5-2h4V15H18Z"/><path class="cls-1" d="M30,17H28V14a1,1,0,0,1,1-1h6a1,1,0,0,1,1,1v2H34V15H30Z"/><path class="cls-1" d="M40,10H1A1,1,0,0,1,0,9V5A3,3,0,0,1,3,2H38a3,3,0,0,1,3,3V9A1,1,0,0,1,40,10ZM2,8H39V5a1,1,0,0,0-1-1H3A1,1,0,0,0,2,5Z"/><rect class="cls-1" x="32" width="2" height="6"/><rect class="cls-1" x="24" width="2" height="6"/><rect class="cls-1" x="15" width="2" height="6"/><rect class="cls-1" x="7" width="2" height="6"/><path class="cls-1" d="M35,43A13,13,0,1,1,48,30,13,13,0,0,1,35,43Zm0-24A11,11,0,1,0,46,30,11,11,0,0,0,35,19Z"/><polygon class="cls-1" points="33 37.41 27.29 31.71 28.71 30.29 33 34.59 41.29 26.29 42.71 27.71 33 37.41"/></g></g></svg>