<svg xmlns="http://www.w3.org/2000/svg" viewBox="0 0 48 48"><defs><style>.cls-1{fill:#1e0f00;}</style></defs><title>Asset 561</title><g id="Layer_2" data-name="Layer 2"><g id="_1" data-name="1"><path class="cls-1" d="M33.66,23.34a1,1,0,0,1-.71-.29A7,7,0,0,0,28,21a1,1,0,0,1-1-1V9a1,1,0,0,1,1-1,19.86,19.86,0,0,1,14.14,5.86,1,1,0,0,1,0,1.41l-7.78,7.78A1,1,0,0,1,33.66,23.34ZM29,19.05A8.92,8.92,0,0,1,33.62,21L40,14.58A17.84,17.84,0,0,0,29,10Z"/><path class="cls-1" d="M41.44,42.44a1,1,0,0,1-.71-.3L33,34.36A1,1,0,0,1,33,33a7,7,0,0,0,0-9.9,1,1,0,0,1,0-1.41l7.78-7.78a1,1,0,0,1,1.41,0,20,20,0,0,1,0,28.28A1,1,0,0,1,41.44,42.44ZM35,33.62,41.42,40a18,18,0,0,0,0-24L35,22.38a9,9,0,0,1,0,11.24Z"/><path class="cls-1" d="M15,24H4a1,1,0,0,1-1-1A20,20,0,0,1,23,3a1,1,0,0,1,1,1V15a1,1,0,0,1-1,1,7,7,0,0,0-7,7A1,1,0,0,1,15,24ZM5,22h9A9,9,0,0,1,22,14.06V5A18,18,0,0,0,5,22Z"/><path class="cls-1" d="M28,48A20,20,0,0,1,8,28a1,1,0,0,1,1-1H20a1,1,0,0,1,1,1,7,7,0,0,0,12,5,1,1,0,0,1,1.41,0l7.78,7.78a1,1,0,0,1,0,1.41A19.86,19.86,0,0,1,28,48ZM10,29A18,18,0,0,0,40,41.42L33.62,35A8.91,8.91,0,0,1,28,37a9,9,0,0,1-8.94-8Z"/><path class="cls-1" d="M6,44H2a2,2,0,0,1-2-2V38a2,2,0,0,1,2-2H6a2,2,0,0,1,2,2v4A2,2,0,0,1,6,44ZM2,38v4H6V38Z"/><rect class="cls-1" x="7" y="39" width="14" height="2"/><rect class="cls-1" x="35" width="10" height="2"/><rect class="cls-1" x="27" width="6" height="2"/><rect class="cls-1" x="27" y="4" width="13" height="2"/></g></g></svg>