<svg xmlns="http://www.w3.org/2000/svg" viewBox="0 0 48 48"><defs><style>.cls-1{fill:#1e0f00;}</style></defs><title>Asset 461</title><g id="Layer_2" data-name="Layer 2"><g id="_1" data-name="1"><path class="cls-1" d="M24,36A12,12,0,1,1,36,24,12,12,0,0,1,24,36Zm0-22A10,10,0,1,0,34,24,10,10,0,0,0,24,14Z"/><path class="cls-1" d="M24,41C10.9,41,.59,25.21.16,24.54a1,1,0,0,1,0-1.08C.59,22.79,10.9,7,24,7S47.41,22.79,47.84,23.46a1,1,0,0,1,0,1.08C47.41,25.21,37.1,41,24,41ZM2.21,24C4.13,26.75,13.29,39,24,39S43.87,26.75,45.79,24C43.87,21.25,34.71,9,24,9S4.13,21.25,2.21,24Z"/><path class="cls-1" d="M2,10H0V1A1,1,0,0,1,1,0h9V2H2Z"/><path class="cls-1" d="M48,10H46V2H38V0h9a1,1,0,0,1,1,1Z"/><path class="cls-1" d="M47,48H38V46h8V38h2v9A1,1,0,0,1,47,48Z"/><path class="cls-1" d="M10,48H1a1,1,0,0,1-1-1V38H2v8h8Z"/><polygon class="cls-1" points="22 31.41 16.29 25.71 17.71 24.29 22 28.59 30.29 20.29 31.71 21.71 22 31.41"/></g></g></svg>