<svg xmlns="http://www.w3.org/2000/svg" viewBox="0 0 48 48"><defs><style>.cls-1{fill:#1e0f00;}</style></defs><title>Asset 541</title><g id="Layer_2" data-name="Layer 2"><g id="_1" data-name="1"><path class="cls-1" d="M24,31a7,7,0,1,1,7-7A7,7,0,0,1,24,31Zm0-12a5,5,0,1,0,5,5A5,5,0,0,0,24,19Z"/><rect class="cls-1" x="23" y="30" width="2" height="5"/><rect class="cls-1" x="23" y="13" width="2" height="5"/><path class="cls-1" d="M24,42a4,4,0,1,1,4-4A4,4,0,0,1,24,42Zm0-6a2,2,0,1,0,2,2A2,2,0,0,0,24,36Z"/><path class="cls-1" d="M35,48a4,4,0,1,1,4-4A4,4,0,0,1,35,48Zm0-6a2,2,0,1,0,2,2A2,2,0,0,0,35,42Z"/><path class="cls-1" d="M13,48a4,4,0,1,1,4-4A4,4,0,0,1,13,48Zm0-6a2,2,0,1,0,2,2A2,2,0,0,0,13,42Z"/><rect class="cls-1" x="28.5" y="37.74" width="2" height="6.53" transform="translate(-20.62 47.26) rotate(-61.39)"/><rect class="cls-1" x="15.23" y="40" width="6.53" height="2" transform="translate(-17.37 13.85) rotate(-28.59)"/><path class="cls-1" d="M24,14a4,4,0,1,1,4-4A4,4,0,0,1,24,14Zm0-6a2,2,0,1,0,2,2A2,2,0,0,0,24,8Z"/><path class="cls-1" d="M13,8a4,4,0,1,1,4-4A4,4,0,0,1,13,8Zm0-6a2,2,0,1,0,2,2A2,2,0,0,0,13,2Z"/><path class="cls-1" d="M35,8a4,4,0,1,1,4-4A4,4,0,0,1,35,8Zm0-6a2,2,0,1,0,2,2A2,2,0,0,0,35,2Z"/><rect class="cls-1" x="17.5" y="3.74" width="2" height="6.53" transform="translate(3.5 19.89) rotate(-61.39)"/><rect class="cls-1" x="26.23" y="6" width="6.53" height="2" transform="translate(0.25 14.97) rotate(-28.59)"/><rect class="cls-1" x="30" y="23" width="5" height="2"/><rect class="cls-1" x="13" y="23" width="5" height="2"/><path class="cls-1" d="M38,28a4,4,0,1,1,4-4A4,4,0,0,1,38,28Zm0-6a2,2,0,1,0,2,2A2,2,0,0,0,38,22Z"/><path class="cls-1" d="M44,17a4,4,0,1,1,4-4A4,4,0,0,1,44,17Zm0-6a2,2,0,1,0,2,2A2,2,0,0,0,44,11Z"/><path class="cls-1" d="M44,39a4,4,0,1,1,4-4A4,4,0,0,1,44,39Zm0-6a2,2,0,1,0,2,2A2,2,0,0,0,44,33Z"/><rect class="cls-1" x="37.74" y="17.5" width="6.53" height="2" transform="translate(5.12 45.63) rotate(-61.38)"/><rect class="cls-1" x="40" y="26.23" width="2" height="6.53" transform="translate(-9.12 23.24) rotate(-28.61)"/><path class="cls-1" d="M10,28a4,4,0,1,1,4-4A4,4,0,0,1,10,28Zm0-6a2,2,0,1,0,2,2A2,2,0,0,0,10,22Z"/><path class="cls-1" d="M4,39a4,4,0,1,1,4-4A4,4,0,0,1,4,39Zm0-6a2,2,0,1,0,2,2A2,2,0,0,0,4,33Z"/><path class="cls-1" d="M4,17a4,4,0,1,1,4-4A4,4,0,0,1,4,17Zm0-6a2,2,0,1,0,2,2A2,2,0,0,0,4,11Z"/><rect class="cls-1" x="3.74" y="28.5" width="6.53" height="2" transform="translate(-22.25 21.52) rotate(-61.38)"/><rect class="cls-1" x="6" y="15.23" width="2" height="6.53" transform="translate(-8 5.61) rotate(-28.61)"/></g></g></svg>