<svg xmlns="http://www.w3.org/2000/svg" viewBox="0 0 48 48"><defs><style>.cls-1{fill:#1e0f00;}</style></defs><title>Asset 201</title><g id="Layer_2" data-name="Layer 2"><g id="_1" data-name="1"><path class="cls-1" d="M24,45a21,21,0,0,1-13.63-5l1.3-1.52a19,19,0,1,0,23.27-30l1.15-1.63A21,21,0,0,1,24,45Z"/><path class="cls-1" d="M6.25,35.22A21,21,0,0,1,30.49,4l-.62,1.9A19,19,0,0,0,7.94,34.15Z"/><path class="cls-1" d="M24,38A14,14,0,0,1,10,24a13.86,13.86,0,0,1,3-8.62l1.58,1.23A11.85,11.85,0,0,0,12,24a12,12,0,0,0,23.68,2.75l2,.46A13.94,13.94,0,0,1,24,38Z"/><path class="cls-1" d="M35.68,21.25a12,12,0,0,0-16.82-8.1L18,11.34a14,14,0,0,1,19.62,9.45Z"/><path class="cls-1" d="M24,31a7,7,0,1,1,7-7A7,7,0,0,1,24,31Zm0-12a5,5,0,1,0,5,5A5,5,0,0,0,24,19Z"/><path class="cls-1" d="M37,28a4,4,0,1,1,4-4A4,4,0,0,1,37,28Zm0-6a2,2,0,1,0,2,2A2,2,0,0,0,37,22Z"/><path class="cls-1" d="M33,10a4,4,0,1,1,4-4A4,4,0,0,1,33,10Zm0-6a2,2,0,1,0,2,2A2,2,0,0,0,33,4Z"/><path class="cls-1" d="M16,18a4,4,0,1,1,4-4A4,4,0,0,1,16,18Zm0-6a2,2,0,1,0,2,2A2,2,0,0,0,16,12Z"/><path class="cls-1" d="M9,41a4,4,0,1,1,4-4A4,4,0,0,1,9,41Zm0-6a2,2,0,1,0,2,2A2,2,0,0,0,9,35Z"/><rect class="cls-1" x="23" y="30" width="2" height="18"/><rect class="cls-1" x="23" width="2" height="18"/><rect class="cls-1" y="23" width="18" height="2"/><rect class="cls-1" x="30" y="23" width="4" height="2"/><rect class="cls-1" x="40" y="23" width="8" height="2"/></g></g></svg>