<svg xmlns="http://www.w3.org/2000/svg" viewBox="0 0 48 48"><defs><style>.cls-1{fill:#1e0f00;}</style></defs><title>Asset 121</title><g id="Layer_2" data-name="Layer 2"><g id="_1" data-name="1"><rect class="cls-1" x="1" y="6" width="4" height="2"/><rect class="cls-1" x="1" y="14" width="6" height="2"/><rect class="cls-1" x="9" y="14" width="4" height="2"/><rect class="cls-1" x="15" y="14" width="4" height="2"/><rect class="cls-1" x="8" y="22" width="4" height="2"/><rect class="cls-1" x="14" y="22" width="4" height="2"/><rect class="cls-1" x="20" y="22" width="4" height="2"/><rect class="cls-1" x="10" y="30" width="4" height="2"/><rect class="cls-1" x="16" y="30" width="4" height="2"/><rect class="cls-1" x="22" y="30" width="4" height="2"/><rect class="cls-1" x="1" y="22" width="5" height="2"/><rect class="cls-1" x="1" y="30" width="7" height="2"/><rect class="cls-1" x="1" y="38" width="4" height="2"/><path class="cls-1" d="M30,48H1a1,1,0,0,1-1-1V0H2V46H30Z"/><rect class="cls-1" x="40" y="46" width="8" height="2"/><path class="cls-1" d="M35,48a1.05,1.05,0,0,1-.68-.26l-12-11a1,1,0,0,1-.25-1.1A1,1,0,0,1,23,35h6C28.34,12.39,5.82,2,5.59,1.91A1,1,0,0,1,6.13,0C6.48.06,40.25,5,41,35h6a1,1,0,0,1,.93.64,1,1,0,0,1-.25,1.1l-12,11A1.05,1.05,0,0,1,35,48ZM25.57,37,35,45.64,44.43,37H40a1,1,0,0,1-1-1C39,14.53,21.73,6.33,12.11,3.43,19.38,8.4,31,19,31,36a1,1,0,0,1-1,1Z"/></g></g></svg>