<svg xmlns="http://www.w3.org/2000/svg" viewBox="0 0 48 48"><defs><style>.cls-1{fill:#1e0f00;}</style></defs><title>Asset 21</title><g id="Layer_2" data-name="Layer 2"><g id="_1" data-name="1"><path class="cls-1" d="M44,48H37a1,1,0,0,1-.8-.4L33.5,44h-19l-2.7,3.6a1,1,0,0,1-.8.4H4a1,1,0,0,1-.86-.49l-3-5A1,1,0,0,1,1,41H6.46L7.8,39,6.46,37H1a1,1,0,0,1-.86-1.51l3-5A1,1,0,0,1,4,30h7a1,1,0,0,1,.8.4L14.5,34h19l2.7-3.6A1,1,0,0,1,37,30h7a1,1,0,0,1,.86.49l3,5A1,1,0,0,1,47,37H41.54L40.2,39l1.34,2H47a1,1,0,0,1,.86,1.51l-3,5A1,1,0,0,1,44,48Zm-6.5-2h5.93l1.8-3H41a1,1,0,0,1-.83-.45l-2-3a1,1,0,0,1,0-1.1l2-3A1,1,0,0,1,41,35h4.23l-1.8-3H37.5l-2.7,3.6a1,1,0,0,1-.8.4H14a1,1,0,0,1-.8-.4L10.5,32H4.57l-1.8,3H7a1,1,0,0,1,.83.45l2,3a1,1,0,0,1,0,1.1l-2,3A1,1,0,0,1,7,43H2.77l1.8,3H10.5l2.7-3.6A1,1,0,0,1,14,42H34a1,1,0,0,1,.8.4Z"/><path class="cls-1" d="M24,23a4,4,0,0,1-4-4c0-5.12,2.94-13,3.06-13.35a1,1,0,0,1,1.88,0C25.06,6,28,13.88,28,19A4,4,0,0,1,24,23ZM24,9.12c-.86,2.72-2,6.9-2,9.88a2,2,0,0,0,4,0C26,16,24.86,11.84,24,9.12Z"/><rect class="cls-1" x="6" y="18" width="5" height="2"/><rect class="cls-1" x="37" y="18" width="5" height="2"/><rect class="cls-1" x="34.92" y="10.25" width="5" height="2" transform="translate(-0.61 20.22) rotate(-29.99)"/><rect class="cls-1" x="29.25" y="4.58" width="5" height="2" transform="translate(11.05 30.29) rotate(-60.01)"/><rect class="cls-1" x="15.25" y="3.08" width="2" height="5" transform="translate(-0.61 8.87) rotate(-29.99)"/><rect class="cls-1" x="9.58" y="8.75" width="2" height="5" transform="translate(-4.45 14.79) rotate(-60.01)"/><path class="cls-1" d="M39.64,29a1,1,0,0,1-.51-.14l-4.38-2.62,1-1.72,3.48,2.08A17,17,0,1,0,7,19a17.19,17.19,0,0,0,1.75,7.6l3.48-2.08,1,1.72L8.87,28.86a1,1,0,0,1-.76.11,1,1,0,0,1-.62-.47A19,19,0,1,1,43,19a19.19,19.19,0,0,1-2.49,9.5,1,1,0,0,1-.62.47A1.07,1.07,0,0,1,39.64,29Z"/><rect class="cls-1" x="25" y="28" width="2" height="2"/><rect class="cls-1" x="29" y="28" width="2" height="2"/><rect class="cls-1" x="21" y="28" width="2" height="2"/><rect class="cls-1" x="17" y="28" width="2" height="2"/></g></g></svg>