<svg xmlns="http://www.w3.org/2000/svg" viewBox="0 0 48 48"><defs><style>.cls-1{fill:#1e0f00;}</style></defs><title>Asset 581</title><g id="Layer_2" data-name="Layer 2"><g id="_1" data-name="1"><path class="cls-1" d="M28,7H20a1,1,0,0,1-1-1V2a2,2,0,0,1,2-2h6a2,2,0,0,1,2,2V6A1,1,0,0,1,28,7ZM21,5h6V2H21Z"/><path class="cls-1" d="M42,21a1,1,0,0,1-.53-.15c-.59-.37-1.14-.72-1.65-1.06C36.16,17.45,34.2,16.19,30,16v1a1,1,0,0,1-1,1H19a1,1,0,0,1-1-1V16c-4.22.16-6.12,1.39-9.66,3.67L6.53,20.85A1,1,0,0,1,5,20C5,13.51,11.08,7.57,18,7V6a1,1,0,0,1,1-1H29a1,1,0,0,1,1,1V7c6.92.53,13,6.47,13,13a1,1,0,0,1-.52.88A1,1,0,0,1,42,21ZM29,14c5.43,0,7.85,1.51,11.77,4C39.63,13.16,34.44,9,29,9a1,1,0,0,1-1-1V7H20V8a1,1,0,0,1-1,1A12.45,12.45,0,0,0,7.25,18h0c3.87-2.5,6.21-4,11.74-4a1,1,0,0,1,1,1v1h8V15A1,1,0,0,1,29,14Z"/><path class="cls-1" d="M28,38H20a1,1,0,0,1-1-1V17a1,1,0,0,1,1-1h8a1,1,0,0,1,1,1V37a1,1,0,0,1-1,1Zm-7-2h6V18H21Z"/><path class="cls-1" d="M44,43H4a4,4,0,0,1-4-4V4A4,4,0,0,1,4,0H16V2H4A2,2,0,0,0,2,4V39a2,2,0,0,0,2,2H44a2,2,0,0,0,2-2V4a2,2,0,0,0-2-2H32V0H44a4,4,0,0,1,4,4V39A4,4,0,0,1,44,43Z"/><path class="cls-1" d="M33,48H15a1,1,0,0,1-1-1V42a1,1,0,0,1,1-1H33a1,1,0,0,1,1,1v5A1,1,0,0,1,33,48ZM16,46H32V43H16Z"/><rect class="cls-1" x="8" y="46" width="32" height="2"/></g></g></svg>