<svg xmlns="http://www.w3.org/2000/svg" viewBox="0 0 48 48"><defs><style>.cls-1{fill:#1e0f00;}</style></defs><title>Asset 71</title><g id="Layer_2" data-name="Layer 2"><g id="_1" data-name="1"><path class="cls-1" d="M40,32H38V30h2a6,6,0,1,0-2.63-11.39l-.88-1.79A8,8,0,1,1,40,32Z"/><path class="cls-1" d="M10,32H9a9,9,0,1,1,9-9H16a7,7,0,1,0-7,7h1Z"/><path class="cls-1" d="M14.3,16.5l-2-.45a13,13,0,0,1,2.1-4.63l1.63,1.16A10.88,10.88,0,0,0,14.3,16.5Z"/><path class="cls-1" d="M17.23,11.23,15.81,9.81a13,13,0,0,1,18.38,0l-1.41,1.41a11,11,0,0,0-15.55,0Z"/><path class="cls-1" d="M37.25,23.34l-1.88-.67A10.89,10.89,0,0,0,36,19c0-.38,0-.77-.06-1.18a11.13,11.13,0,0,0-2-5.24l1.63-1.16a12.88,12.88,0,0,1,2.36,6.19A13.41,13.41,0,0,1,38,19,12.78,12.78,0,0,1,37.25,23.34Z"/><path class="cls-1" d="M37,7A17,17,0,0,0,13,7L11.56,5.57a19,19,0,0,1,26.88,0Z"/><path class="cls-1" d="M28.54,15.46a5,5,0,0,0-7.08,0l-1.41-1.41a7,7,0,0,1,9.9,0Z"/><rect class="cls-1" x="24" y="18" width="2" height="2"/><path class="cls-1" d="M7,41H5V36a1,1,0,0,1,1-1h5.26L14,25.71l1.92.58-3,10A1,1,0,0,1,12,37H7Z"/><path class="cls-1" d="M19,41H17V36a1,1,0,0,1,1-1h2V26h2V36a1,1,0,0,1-1,1H19Z"/><path class="cls-1" d="M31,41H29V37H27a1,1,0,0,1-1-1V26h2v9h2a1,1,0,0,1,1,1Z"/><path class="cls-1" d="M43,41H41V37H36a1,1,0,0,1-1-.71l-3-10L34,25.71,36.74,35H42a1,1,0,0,1,1,1Z"/><path class="cls-1" d="M18,48a4,4,0,1,1,4-4A4,4,0,0,1,18,48Zm0-6a2,2,0,1,0,2,2A2,2,0,0,0,18,42Z"/><path class="cls-1" d="M6,48a4,4,0,1,1,4-4A4,4,0,0,1,6,48Zm0-6a2,2,0,1,0,2,2A2,2,0,0,0,6,42Z"/><path class="cls-1" d="M42,48a4,4,0,1,1,4-4A4,4,0,0,1,42,48Zm0-6a2,2,0,1,0,2,2A2,2,0,0,0,42,42Z"/><path class="cls-1" d="M30,48a4,4,0,1,1,4-4A4,4,0,0,1,30,48Zm0-6a2,2,0,1,0,2,2A2,2,0,0,0,30,42Z"/></g></g></svg>