<svg xmlns="http://www.w3.org/2000/svg" viewBox="0 0 48 48"><defs><style>.cls-1{fill:#1e0f00;}</style></defs><title>Asset 381</title><g id="Layer_2" data-name="Layer 2"><g id="_1" data-name="1"><path class="cls-1" d="M40,26H38V24h2a6,6,0,1,0-2.63-11.39l-.88-1.79A8,8,0,1,1,40,26Z"/><path class="cls-1" d="M10,26H9a9,9,0,1,1,9-9H16a7,7,0,1,0-7,7h1Z"/><path class="cls-1" d="M37.25,17.34l-1.88-.67A10.89,10.89,0,0,0,36,13c0-.38,0-.77-.06-1.18A11,11,0,0,0,14.3,10.5l-2-.45a13,13,0,0,1,25.57,1.56A13.41,13.41,0,0,1,38,13,12.78,12.78,0,0,1,37.25,17.34Z"/><path class="cls-1" d="M36,30H12a4,4,0,0,1-4-4V24a4,4,0,0,1,4-4H36a4,4,0,0,1,4,4v2A4,4,0,0,1,36,30ZM12,22a2,2,0,0,0-2,2v2a2,2,0,0,0,2,2H36a2,2,0,0,0,2-2V24a2,2,0,0,0-2-2Z"/><path class="cls-1" d="M36,38H12a4,4,0,0,1-4-4V32a4,4,0,0,1,4-4H36a4,4,0,0,1,4,4v2A4,4,0,0,1,36,38ZM12,30a2,2,0,0,0-2,2v2a2,2,0,0,0,2,2H36a2,2,0,0,0,2-2V32a2,2,0,0,0-2-2Z"/><path class="cls-1" d="M24,48a4,4,0,1,1,4-4A4,4,0,0,1,24,48Zm0-6a2,2,0,1,0,2,2A2,2,0,0,0,24,42Z"/><rect class="cls-1" x="27" y="43" width="17" height="2"/><rect class="cls-1" x="4" y="43" width="17" height="2"/><rect class="cls-1" x="23" y="37" width="2" height="4"/><rect class="cls-1" x="12" y="32" width="2" height="2"/><rect class="cls-1" x="16" y="32" width="2" height="2"/><rect class="cls-1" x="20" y="32" width="2" height="2"/><rect class="cls-1" x="12" y="24" width="2" height="2"/><rect class="cls-1" x="16" y="24" width="2" height="2"/><rect class="cls-1" x="20" y="24" width="2" height="2"/><rect class="cls-1" x="34" y="32" width="2" height="2"/><rect class="cls-1" x="34" y="24" width="2" height="2"/></g></g></svg>