<svg xmlns="http://www.w3.org/2000/svg" viewBox="0 0 48 48"><defs><style>.cls-1{fill:#1e0f00;}</style></defs><title>Asset 601</title><g id="Layer_2" data-name="Layer 2"><g id="_1" data-name="1"><rect class="cls-1" x="1" y="6" width="4" height="2"/><rect class="cls-1" x="1" y="14" width="4" height="2"/><rect class="cls-1" x="1" y="22" width="4" height="2"/><rect class="cls-1" x="1" y="30" width="4" height="2"/><rect class="cls-1" x="1" y="38" width="4" height="2"/><path class="cls-1" d="M48,48H1a1,1,0,0,1-1-1V0H2V46H48Z"/><path class="cls-1" d="M42,30a1,1,0,0,1-.65-.24l-4.73-4.05,1.31-1.52,3.79,3.25,4.41-7.93,1.74,1-5,9a1,1,0,0,1-.69.49Z"/><path class="cls-1" d="M27,38a1,1,0,0,1-.53-.15L21,34.44l1.06-1.7,4.58,2.86,6-10.49,1.74,1L27.87,37.5a1,1,0,0,1-.63.47A1,1,0,0,1,27,38Z"/><rect class="cls-1" x="6.46" y="37.01" width="11.87" height="2" transform="translate(-22.35 18.23) rotate(-42.29)"/><path class="cls-1" d="M38,15a1,1,0,0,1-.65-.24l-4.73-4,1.3-1.52,3.89,3.33L46.18.43l1.64,1.14-9,13a1,1,0,0,1-.69.42Z"/><path class="cls-1" d="M23,25a1,1,0,0,1-.66-.25l-5.74-5,1.32-1.51,4.76,4.18,6.08-12.17,1.79.9L23.89,24.45a1,1,0,0,1-.7.53Z"/><rect class="cls-1" x="5.3" y="23.29" width="10.9" height="2" transform="translate(-15.65 21.33) rotate(-59.74)"/><path class="cls-1" d="M31,12a4,4,0,1,1,4-4A4,4,0,0,1,31,12Zm0-6a2,2,0,1,0,2,2A2,2,0,0,0,31,6Z"/><path class="cls-1" d="M35,27a4,4,0,1,1,4-4A4,4,0,0,1,35,27Zm0-6a2,2,0,1,0,2,2A2,2,0,0,0,35,21Z"/><path class="cls-1" d="M19,36a4,4,0,1,1,4-4A4,4,0,0,1,19,36Zm0-6a2,2,0,1,0,2,2A2,2,0,0,0,19,30Z"/><path class="cls-1" d="M15,21a4,4,0,1,1,4-4A4,4,0,0,1,15,21Zm0-6a2,2,0,1,0,2,2A2,2,0,0,0,15,15Z"/><rect class="cls-1" x="34" y="29" width="2" height="18"/><rect class="cls-1" x="18" y="38" width="2" height="9"/></g></g></svg>