<svg xmlns="http://www.w3.org/2000/svg" viewBox="0 0 48 48"><defs><style>.cls-1{fill:#1e0f00;}</style></defs><title>Asset 141</title><g id="Layer_2" data-name="Layer 2"><g id="_1" data-name="1"><path class="cls-1" d="M30,48H4a4,4,0,0,1-4-4V4A4,4,0,0,1,4,0H30a4,4,0,0,1,4,4V44A4,4,0,0,1,30,48ZM4,2A2,2,0,0,0,2,4V44a2,2,0,0,0,2,2H30a2,2,0,0,0,2-2V4a2,2,0,0,0-2-2Z"/><path class="cls-1" d="M30,48H4a4,4,0,0,1-4-4V14a4,4,0,0,1,4-4H30a4,4,0,0,1,4,4V44A4,4,0,0,1,30,48ZM4,12a2,2,0,0,0-2,2V44a2,2,0,0,0,2,2H30a2,2,0,0,0,2-2V14a2,2,0,0,0-2-2Z"/><rect class="cls-1" x="27" y="4" width="2" height="4"/><path class="cls-1" d="M47,40H39a1,1,0,0,1-1-1V6a1,1,0,0,1,1-1h8a1,1,0,0,1,1,1V39A1,1,0,0,1,47,40Zm-7-2h6V7H40Z"/><path class="cls-1" d="M43,48a1,1,0,0,1-.89-.55l-4-8A1,1,0,0,1,39,38h8a1,1,0,0,1,.89,1.45l-4,8A1,1,0,0,1,43,48Zm-2.38-8L43,44.76,45.38,40Z"/><path class="cls-1" d="M45,7H41a1,1,0,0,1-1-1V1a1,1,0,0,1,1-1h4a1,1,0,0,1,1,1V6A1,1,0,0,1,45,7ZM42,5h2V2H42Z"/><rect class="cls-1" x="39" y="28" width="8" height="2"/><rect class="cls-1" x="39" y="10" width="8" height="2"/><rect class="cls-1" x="16" y="13" width="2" height="32"/><rect class="cls-1" x="3" y="19" width="28" height="2"/><rect class="cls-1" x="3" y="37" width="22" height="2"/><rect class="cls-1" x="3" y="28" width="28" height="2"/><rect class="cls-1" x="24" y="13" width="2" height="32"/><rect class="cls-1" x="8" y="13" width="2" height="32"/></g></g></svg>