<svg xmlns="http://www.w3.org/2000/svg" viewBox="0 0 48 48"><defs><style>.cls-1{fill:#1e0f00;}</style></defs><title>Asset 291</title><g id="Layer_2" data-name="Layer 2"><g id="_1" data-name="1"><path class="cls-1" d="M34,44.27,29.24,27H18.76L14,44.27,12,43.73l5-18A1,1,0,0,1,18,25H30a1,1,0,0,1,1,.73l5,18Z"/><path class="cls-1" d="M31,22H17a1,1,0,0,1-.95-.68l-4-12a1,1,0,0,1,.36-1.12,1,1,0,0,1,1.17,0l6,4.26,3.53-8.82A1,1,0,0,1,24,3h0a1,1,0,0,1,.93.63l3.53,8.82,6-4.26a1,1,0,0,1,1.17,0A1,1,0,0,1,36,9.32l-4,12A1,1,0,0,1,31,22ZM17.72,20H30.28l2.8-8.4-4.5,3.21a1,1,0,0,1-1.51-.44L24,6.69l-3.07,7.68a1,1,0,0,1-.65.59,1,1,0,0,1-.86-.15l-4.5-3.21Z"/><path class="cls-1" d="M1.88,44.48l-1.76-1,6-11A1,1,0,0,1,7,32h9v2H7.59Z"/><path class="cls-1" d="M46.09,44.41,41.36,34H32V32H42a1,1,0,0,1,.91.59l5,11Z"/><rect class="cls-1" x="34" y="5" width="2" height="2"/><rect class="cls-1" x="12" y="5" width="2" height="2"/><rect class="cls-1" x="23" width="2" height="2"/><rect class="cls-1" y="46" width="48" height="2"/><rect class="cls-1" x="23" y="32" width="2" height="9"/><rect class="cls-1" x="21" y="31" width="6" height="2"/><rect class="cls-1" x="21" y="40" width="6" height="2"/></g></g></svg>