<svg xmlns="http://www.w3.org/2000/svg" viewBox="0 0 48 48"><defs><style>.cls-1{fill:#1e0f00;}</style></defs><title>Asset 321</title><g id="Layer_2" data-name="Layer 2"><g id="_1" data-name="1"><path class="cls-1" d="M20,40A20,20,0,1,1,40,20,20,20,0,0,1,20,40ZM20,2A18,18,0,1,0,38,20,18,18,0,0,0,20,2Z"/><path class="cls-1" d="M41,48a1,1,0,0,1-.71-.29l-11-11,1.42-1.42L41,45.59,45.59,41,35.29,30.71l1.42-1.42,11,11a1,1,0,0,1,0,1.42l-6,6A1,1,0,0,1,41,48Z"/><path class="cls-1" d="M20,24a4,4,0,1,1,4-4A4,4,0,0,1,20,24Zm0-6a2,2,0,1,0,2,2A2,2,0,0,0,20,18Z"/><rect class="cls-1" x="15.59" y="22" width="2.83" height="2" transform="translate(-11.28 18.76) rotate(-45)"/><rect class="cls-1" x="20.76" y="14" width="8.49" height="2" transform="translate(-3.28 22.07) rotate(-45)"/><rect class="cls-1" x="19" y="6" width="2" height="3"/><rect class="cls-1" x="19" y="32" width="2" height="2"/><rect class="cls-1" x="24" y="32" width="2" height="2"/><rect class="cls-1" x="14" y="32" width="2" height="2"/><rect class="cls-1" x="6" y="19" width="3" height="2"/><rect class="cls-1" x="31" y="19" width="3" height="2"/><path class="cls-1" d="M10.1,30.9a1,1,0,0,1-.7-.29,15,15,0,1,1,21.21,0,1,1,0,0,1-1.42,0l-2.12-2.12,1.42-1.42,1.38,1.39A12.88,12.88,0,0,0,33,20,13,13,0,0,0,7,20a12.86,12.86,0,0,0,3.13,8.46l1.38-1.39,1.42,1.41-2.12,2.13a1,1,0,0,1-.7.29Z"/><rect class="cls-1" x="10.16" y="9.66" width="2" height="3" transform="translate(-4.62 11.16) rotate(-45)"/><rect class="cls-1" x="35.76" y="39" width="8.49" height="2" transform="translate(-16.57 40) rotate(-45)"/></g></g></svg>