<svg xmlns="http://www.w3.org/2000/svg" viewBox="0 0 48 48"><defs><style>.cls-1{fill:#1e0f00;}</style></defs><title>Asset 351</title><g id="Layer_2" data-name="Layer 2"><g id="_1" data-name="1"><rect class="cls-1" x="18" y="12" width="10" height="2"/><rect class="cls-1" x="6" y="12" width="10" height="2"/><rect class="cls-1" x="14" y="17" width="8" height="2"/><rect class="cls-1" x="6" y="17" width="6" height="2"/><rect class="cls-1" x="6" y="22" width="10" height="2"/><rect class="cls-1" x="6" y="38" width="2" height="5"/><rect class="cls-1" x="10" y="35" width="2" height="8"/><rect class="cls-1" x="14" y="37" width="2" height="6"/><rect class="cls-1" x="18" y="32" width="2" height="11"/><rect class="cls-1" x="6" y="27" width="14" height="2"/><path class="cls-1" d="M37,48H3a3,3,0,0,1-3-3V3A3,3,0,0,1,3,0H37a3,3,0,0,1,3,3V13H38V3a1,1,0,0,0-1-1H3A1,1,0,0,0,2,3V45a1,1,0,0,0,1,1H37a1,1,0,0,0,1-1V41h2v4A3,3,0,0,1,37,48Z"/><path class="cls-1" d="M28,8H12A3,3,0,0,1,9,5V1a1,1,0,0,1,1-1H30a1,1,0,0,1,1,1V5A3,3,0,0,1,28,8ZM11,2V5a1,1,0,0,0,1,1H28a1,1,0,0,0,1-1V2Z"/><path class="cls-1" d="M35,40A13,13,0,1,1,48,27,13,13,0,0,1,35,40Zm0-24A11,11,0,1,0,46,27,11,11,0,0,0,35,16Z"/><path class="cls-1" d="M35,32a5,5,0,1,1,5-5A5,5,0,0,1,35,32Zm0-8a3,3,0,1,0,3,3A3,3,0,0,0,35,24Z"/><rect class="cls-1" x="34" y="15" width="2" height="8"/><rect class="cls-1" x="36.66" y="20.34" width="8" height="2" transform="translate(-3.18 35) rotate(-45)"/><rect class="cls-1" x="39.66" y="28.66" width="2" height="8" transform="translate(-11.18 38.32) rotate(-45)"/></g></g></svg>