<svg xmlns="http://www.w3.org/2000/svg" viewBox="0 0 48 48"><defs><style>.cls-1{fill:#1e0f00;}</style></defs><title>Asset 181</title><g id="Layer_2" data-name="Layer 2"><g id="_1" data-name="1"><path class="cls-1" d="M45,30H39a3,3,0,0,1-3-3V21a3,3,0,0,1,3-3h6a3,3,0,0,1,3,3v6A3,3,0,0,1,45,30ZM39,20a1,1,0,0,0-1,1v6a1,1,0,0,0,1,1h6a1,1,0,0,0,1-1V21a1,1,0,0,0-1-1Z"/><path class="cls-1" d="M27,30H21a3,3,0,0,1-3-3V21a3,3,0,0,1,3-3h6a3,3,0,0,1,3,3v6A3,3,0,0,1,27,30ZM21,20a1,1,0,0,0-1,1v6a1,1,0,0,0,1,1h6a1,1,0,0,0,1-1V21a1,1,0,0,0-1-1Z"/><path class="cls-1" d="M9,30H3a3,3,0,0,1-3-3V21a3,3,0,0,1,3-3H9a3,3,0,0,1,3,3v6A3,3,0,0,1,9,30ZM3,20a1,1,0,0,0-1,1v6a1,1,0,0,0,1,1H9a1,1,0,0,0,1-1V21a1,1,0,0,0-1-1Z"/><path class="cls-1" d="M27,12H21a3,3,0,0,1-3-3V3a3,3,0,0,1,3-3h6a3,3,0,0,1,3,3V9A3,3,0,0,1,27,12ZM21,2a1,1,0,0,0-1,1V9a1,1,0,0,0,1,1h6a1,1,0,0,0,1-1V3a1,1,0,0,0-1-1Z"/><path class="cls-1" d="M45,48H39a3,3,0,0,1-3-3V39a3,3,0,0,1,3-3h6a3,3,0,0,1,3,3v6A3,3,0,0,1,45,48ZM39,38a1,1,0,0,0-1,1v6a1,1,0,0,0,1,1h6a1,1,0,0,0,1-1V39a1,1,0,0,0-1-1Z"/><path class="cls-1" d="M27,48H21a3,3,0,0,1-3-3V39a3,3,0,0,1,3-3h6a3,3,0,0,1,3,3v6A3,3,0,0,1,27,48ZM21,38a1,1,0,0,0-1,1v6a1,1,0,0,0,1,1h6a1,1,0,0,0,1-1V39a1,1,0,0,0-1-1Z"/><path class="cls-1" d="M9,48H3a3,3,0,0,1-3-3V39a3,3,0,0,1,3-3H9a3,3,0,0,1,3,3v6A3,3,0,0,1,9,48ZM3,38a1,1,0,0,0-1,1v6a1,1,0,0,0,1,1H9a1,1,0,0,0,1-1V39a1,1,0,0,0-1-1Z"/><rect class="cls-1" x="23" y="10" width="2" height="8"/><path class="cls-1" d="M7,19H5V8A3,3,0,0,1,8,5H19V7H8A1,1,0,0,0,7,8Z"/><rect class="cls-1" x="29" y="23" width="8" height="2"/><rect class="cls-1" x="23" y="23" width="2" height="2"/><rect class="cls-1" x="41" y="23" width="2" height="2"/><rect class="cls-1" x="5" y="23" width="2" height="2"/><rect class="cls-1" x="23" y="41" width="2" height="2"/><rect class="cls-1" x="41" y="41" width="2" height="2"/><rect class="cls-1" x="5" y="41" width="2" height="2"/><rect class="cls-1" x="23" y="5" width="2" height="2"/><rect class="cls-1" x="5" y="28" width="2" height="9"/><rect class="cls-1" x="23" y="28" width="2" height="9"/><rect class="cls-1" x="29" y="41" width="8" height="2"/></g></g></svg>