<svg xmlns="http://www.w3.org/2000/svg" viewBox="0 0 48 48"><defs><style>.cls-1{fill:#1e0f00;}</style></defs><title>Asset 111</title><g id="Layer_2" data-name="Layer 2"><g id="_1" data-name="1"><path class="cls-1" d="M19.45,41.94A21,21,0,1,1,42,21H40A19,19,0,1,0,19.6,40Z"/><path class="cls-1" d="M20.86,31A10,10,0,1,1,31,21H29a8,8,0,1,0-8.11,8Z"/><rect class="cls-1" x="20" y="1" width="2" height="12"/><rect class="cls-1" x="22.9" y="7.56" width="10.92" height="2" transform="translate(6.56 28.61) rotate(-59.4)"/><rect class="cls-1" x="5.17" y="30.07" width="11.51" height="2" transform="translate(-18.77 16.83) rotate(-45)"/><path class="cls-1" d="M33,41a4,4,0,1,1,4-4A4,4,0,0,1,33,41Zm0-6a2,2,0,1,0,2,2A2,2,0,0,0,33,35Z"/><rect class="cls-1" x="28.59" y="39" width="2.83" height="2" transform="translate(-19.5 32.93) rotate(-45)"/><rect class="cls-1" x="33.76" y="31" width="8.49" height="2" transform="translate(-11.5 36.24) rotate(-45)"/><rect class="cls-1" x="32" y="23" width="2" height="3"/><rect class="cls-1" x="32" y="46" width="2" height="2"/><rect class="cls-1" x="36" y="46" width="2" height="2"/><rect class="cls-1" x="28" y="46" width="2" height="2"/><rect class="cls-1" x="19" y="36" width="3" height="2"/><rect class="cls-1" x="44" y="36" width="3" height="2"/><path class="cls-1" d="M43,48a1,1,0,0,1-.71-.29l-2.22-2.22,1.42-1.42L43,45.56A13.32,13.32,0,0,0,46,37a13,13,0,0,0-26,0,13.3,13.3,0,0,0,3,8.56l1.48-1.49,1.42,1.42-2.22,2.22a1,1,0,0,1-1.42,0A15.18,15.18,0,0,1,18,37a15,15,0,0,1,30,0,15.18,15.18,0,0,1-4.29,10.71A1,1,0,0,1,43,48Z"/><rect class="cls-1" x="23.16" y="26.66" width="2" height="3" transform="translate(-12.84 25.33) rotate(-45)"/><rect class="cls-1" x="29.18" y="15.21" width="11.01" height="2" transform="translate(-3.41 12.35) rotate(-19.27)"/></g></g></svg>