<svg xmlns="http://www.w3.org/2000/svg" viewBox="0 0 48 48"><defs><style>.cls-1{fill:#1e0f00;}</style></defs><title>Asset 421</title><g id="Layer_2" data-name="Layer 2"><g id="_1" data-name="1"><rect class="cls-1" x="1" y="6" width="4" height="2"/><rect class="cls-1" x="1" y="14" width="4" height="2"/><rect class="cls-1" x="1" y="22" width="4" height="2"/><rect class="cls-1" x="1" y="30" width="4" height="2"/><rect class="cls-1" x="1" y="38" width="4" height="2"/><path class="cls-1" d="M26,48H1a1,1,0,0,1-1-1V0H2V46H26Z"/><rect class="cls-1" x="46" width="2" height="26"/><rect class="cls-1" x="40" y="8" width="2" height="15"/><rect class="cls-1" x="34" y="4" width="2" height="17"/><rect class="cls-1" x="28" y="10" width="2" height="13"/><rect class="cls-1" x="22" y="13" width="2" height="13"/><rect class="cls-1" x="16" y="9" width="2" height="35"/><rect class="cls-1" x="10" y="17" width="2" height="27"/><path class="cls-1" d="M35,40a5,5,0,1,1,5-5A5,5,0,0,1,35,40Zm0-8a3,3,0,1,0,3,3A3,3,0,0,0,35,32Z"/><path class="cls-1" d="M37,48H33a1,1,0,0,1-1-.76l-.79-3.16-2.8,1.68a1,1,0,0,1-1.22-.15l-2.83-2.83a1,1,0,0,1-.15-1.22l1.68-2.8L22.76,38A1,1,0,0,1,22,37V33a1,1,0,0,1,.76-1l3.16-.79-1.68-2.8a1,1,0,0,1,.15-1.22l2.83-2.83a1,1,0,0,1,1.22-.15l2.8,1.68L32,22.76A1,1,0,0,1,33,22h4a1,1,0,0,1,1,.76l.79,3.16,2.8-1.68a1,1,0,0,1,1.22.15l2.83,2.83a1,1,0,0,1,.15,1.22l-1.68,2.8,3.16.79A1,1,0,0,1,48,33v4a1,1,0,0,1-.76,1l-3.16.79,1.68,2.8a1,1,0,0,1-.15,1.22l-2.83,2.83a1,1,0,0,1-1.22.15l-2.8-1.68L38,47.24A1,1,0,0,1,37,48Zm-3.22-2h2.44l.93-3.71a1,1,0,0,1,1.48-.62l3.29,2,1.72-1.72-2-3.29a1,1,0,0,1,.62-1.48L46,36.22V33.78l-3.71-.93a1,1,0,0,1-.62-1.48l2-3.29-1.72-1.72-3.29,2a1,1,0,0,1-1.48-.62L36.22,24H33.78l-.93,3.71a1,1,0,0,1-1.48.62l-3.29-2-1.72,1.72,2,3.29a1,1,0,0,1-.62,1.48L24,33.78v2.44l3.71.93a1,1,0,0,1,.62,1.48l-2,3.29,1.72,1.72,3.29-2a1,1,0,0,1,1.48.62Z"/></g></g></svg>