<svg xmlns="http://www.w3.org/2000/svg" viewBox="0 0 48 48"><defs><style>.cls-1{fill:#1e0f00;}</style></defs><title>Asset 211</title><g id="Layer_2" data-name="Layer 2"><g id="_1" data-name="1"><path class="cls-1" d="M24,12C15.7,12,0,10.75,0,6S15.7,0,24,0,48,1.25,48,6,32.3,12,24,12ZM24,2C9.77,2,2,4.64,2,6s7.77,4,22,4S46,7.36,46,6,38.23,2,24,2Z"/><path class="cls-1" d="M24,24c-8.3,0-24-1.25-24-6H2c0,1.36,7.77,4,22,4s22-2.64,22-4h2C48,22.75,32.3,24,24,24Z"/><path class="cls-1" d="M24,18V16c7.5,0,14.5-.8,18.7-2.13l.6,1.9C38.92,17.17,31.7,18,24,18Z"/><path class="cls-1" d="M24,30V28c7.5,0,14.5-.8,18.7-2.13l.6,1.9C38.92,29.17,31.7,30,24,30Z"/><path class="cls-1" d="M24,42V40c7.5,0,14.5-.8,18.7-2.13l.6,1.9C38.92,41.17,31.7,42,24,42Z"/><path class="cls-1" d="M24,36c-8.3,0-24-1.25-24-6H2c0,1.36,7.77,4,22,4s22-2.64,22-4h2C48,34.75,32.3,36,24,36Z"/><path class="cls-1" d="M24,48c-8.3,0-24-1.25-24-6V6H2V42c0,1.36,7.77,4,22,4s22-2.64,22-4V6h2V42C48,46.75,32.3,48,24,48Z"/><rect class="cls-1" x="5" y="14" width="2" height="2"/><rect class="cls-1" x="10" y="15" width="2" height="2"/><rect class="cls-1" x="15" y="16" width="2" height="2"/><rect class="cls-1" x="5" y="26" width="2" height="2"/><rect class="cls-1" x="10" y="27" width="2" height="2"/><rect class="cls-1" x="15" y="28" width="2" height="2"/><rect class="cls-1" x="5" y="38" width="2" height="2"/><rect class="cls-1" x="10" y="39" width="2" height="2"/><rect class="cls-1" x="15" y="40" width="2" height="2"/></g></g></svg>