<svg xmlns="http://www.w3.org/2000/svg" viewBox="0 0 38 48"><defs><style>.cls-1{fill:#1e0f00;}</style></defs><title>Asset 61</title><g id="Layer_2" data-name="Layer 2"><g id="_1" data-name="1"><path class="cls-1" d="M19,38A19,19,0,1,1,38,19,19,19,0,0,1,19,38ZM19,2A17,17,0,1,0,36,19,17,17,0,0,0,19,2Z"/><path class="cls-1" d="M19,33A14,14,0,1,1,24.12,6l-.73,1.86A12,12,0,1,0,31,19h2A14,14,0,0,1,19,33Z"/><path class="cls-1" d="M29,48a1,1,0,0,1-.51-.14L24,45.17l-4.49,2.69a1,1,0,0,1-1,0L14,45.17,9.51,47.86A1,1,0,0,1,8,47V34h2V45.23l3.49-2.09a1,1,0,0,1,1,0L19,45.83l4.49-2.69a1,1,0,0,1,1,0L28,45.23V34h2V47a1,1,0,0,1-.51.87A1,1,0,0,1,29,48Z"/><path class="cls-1" d="M19,27a1,1,0,0,1-.71-.29l-8-8a1,1,0,0,1,0-1.42l4-4a1,1,0,0,1,1.42,0L19,16.59l7.29-7.3a1,1,0,0,1,1.42,0l4,4a1,1,0,0,1,0,1.42l-12,12A1,1,0,0,1,19,27Zm-6.59-9L19,24.59,29.59,14,27,11.41l-7.29,7.3a1,1,0,0,1-1.42,0L15,15.41Z"/></g></g></svg>