<svg xmlns="http://www.w3.org/2000/svg" viewBox="0 0 48 48"><defs><style>.cls-1{fill:#1e0f00;}</style></defs><title>Asset 101</title><g id="Layer_2" data-name="Layer 2"><g id="_1" data-name="1"><path class="cls-1" d="M5,48H1a1,1,0,0,1-1-1V1A1,1,0,0,1,1,0H17a1,1,0,0,1,.86.49L20.57,5H41a1,1,0,0,1,1,1v5H40V7H20a1,1,0,0,1-.86-.49L16.43,2H2V46H5Z"/><path class="cls-1" d="M47,48H7a1,1,0,0,1-1-1V13a1,1,0,0,1,1-1H47a1,1,0,0,1,1,1V47A1,1,0,0,1,47,48ZM8,46H46V14H8Z"/><rect class="cls-1" x="5" y="5" width="10" height="2"/><path class="cls-1" d="M32,38H22a3,3,0,0,1-3-3V25a3,3,0,0,1,3-3H32a3,3,0,0,1,3,3V35A3,3,0,0,1,32,38ZM22,24a1,1,0,0,0-1,1V35a1,1,0,0,0,1,1H32a1,1,0,0,0,1-1V25a1,1,0,0,0-1-1Z"/><rect class="cls-1" x="37" y="34" width="7" height="2"/><rect class="cls-1" x="37" y="29" width="7" height="2"/><rect class="cls-1" x="37" y="24" width="7" height="2"/><rect class="cls-1" x="10" y="34" width="7" height="2"/><rect class="cls-1" x="10" y="29" width="7" height="2"/><rect class="cls-1" x="10" y="24" width="7" height="2"/><rect class="cls-1" x="23" y="26" width="2" height="2"/><rect class="cls-1" x="23" y="32" width="2" height="2"/><rect class="cls-1" x="29" y="26" width="2" height="2"/><rect class="cls-1" x="29" y="32" width="2" height="2"/><rect class="cls-1" x="21" y="40" width="2" height="4"/><rect class="cls-1" x="31" y="40" width="2" height="4"/><rect class="cls-1" x="21" y="16" width="2" height="4"/><rect class="cls-1" x="31" y="16" width="2" height="4"/><rect class="cls-1" x="26" y="40" width="2" height="4"/><rect class="cls-1" x="26" y="16" width="2" height="4"/></g></g></svg>